<svg width="512" height="512" viewBox="0 0 512 512" fill="none" xmlns="http://www.w3.org/2000/svg">
  <!-- Background Circle -->
  <circle cx="256" cy="256" r="256" fill="#2563eb"/>
  
  <!-- Ink Well -->
  <path d="M356 180c0-11.046-8.954-20-20-20H176c-11.046 0-20 8.954-20 20v40c0 55.228 44.772 100 100 100s100-44.772 100-100v-40z" fill="#ffffff" opacity="0.9"/>
  
  <!-- Quill Pen -->
  <path d="M280 160l60-60c8-8 8-20 0-28s-20-8-28 0l-60 60v28h28z" fill="#ffffff"/>
  <path d="M280 160l-40 40-20-20 40-40h20z" fill="#ffffff" opacity="0.7"/>
  
  <!-- Ink Drops -->
  <circle cx="200" cy="280" r="8" fill="#ffffff" opacity="0.6"/>
  <circle cx="230" cy="260" r="6" fill="#ffffff" opacity="0.5"/>
  <circle cx="290" cy="270" r="7" fill="#ffffff" opacity="0.6"/>
  
  <!-- Text -->
  <text x="256" y="400" font-family="Inter, system-ui, sans-serif" font-size="48" font-weight="600" text-anchor="middle" fill="#ffffff">I</text>
</svg>