<svg width="128" height="128" viewBox="0 0 128 128" fill="none" xmlns="http://www.w3.org/2000/svg">
  <g id="inkwell-mark">
    <!-- Outer glow effect -->
    <circle cx="64" cy="74" r="45" fill="url(#glow)" opacity="0.2"/>
    
    <!-- Quill stem -->
    <path d="M64 16C67.3137 16 70 18.6863 70 22V40C70 43.3137 67.3137 46 64 46C60.6863 46 58 43.3137 58 40V22C58 18.6863 60.6863 16 64 16Z" fill="url(#quillGradient)" opacity="0.9"/>
    
    <!-- Main droplet body -->
    <path d="M64 42C81.6731 42 96 56.3269 96 74C96 91.6731 81.6731 106 64 106C46.3269 106 32 91.6731 32 74C32 56.3269 46.3269 42 64 42Z" fill="url(#dropletGradient)"/>
    
    <!-- Inner highlights -->
    <ellipse cx="54" cy="66" rx="8" ry="12" fill="url(#highlight1)" opacity="0.4"/>
    <ellipse cx="72" cy="82" rx="4" ry="6" fill="url(#highlight2)" opacity="0.3"/>
    
    <!-- Quill nib detail -->
    <path d="M58 50H70C72.2091 50 74 51.7909 74 54V60C74 62.2091 72.2091 64 70 64H58C55.7909 64 54 62.2091 54 60V54C54 51.7909 55.7909 50 58 50Z" fill="url(#nibGradient)" opacity="0.7"/>
    
    <!-- Central nib line -->
    <rect x="63" y="52" width="2" height="10" rx="1" fill="currentColor" opacity="0.6"/>
    
    <!-- Droplet surface reflection -->
    <path d="M44 64C44 58.477 47.5817 53.7235 52.5528 51.2764C57.524 48.8293 63.476 48.8293 68.4472 51.2764C73.4183 53.7235 77 58.477 77 64" stroke="url(#reflection)" stroke-width="2" opacity="0.2"/>
  </g>
  
  <defs>
    <!-- Gradients -->
    <linearGradient id="dropletGradient" x1="64" y1="42" x2="64" y2="106" gradientUnits="userSpaceOnUse">
      <stop offset="0%" stop-color="#5B8CFF"/>
      <stop offset="100%" stop-color="#4F75E6"/>
    </linearGradient>
    
    <linearGradient id="quillGradient" x1="64" y1="16" x2="64" y2="46" gradientUnits="userSpaceOnUse">
      <stop offset="0%" stop-color="#FFD580"/>
      <stop offset="100%" stop-color="#E6C274"/>
    </linearGradient>
    
    <linearGradient id="nibGradient" x1="64" y1="50" x2="64" y2="64" gradientUnits="userSpaceOnUse">
      <stop offset="0%" stop-color="#9EA4B8"/>
      <stop offset="100%" stop-color="#7A8299"/>
    </linearGradient>
    
    <radialGradient id="highlight1" cx="54" cy="66" r="12" gradientUnits="userSpaceOnUse">
      <stop offset="0%" stop-color="#E6E8EE"/>
      <stop offset="100%" stop-color="#E6E8EE" stop-opacity="0"/>
    </radialGradient>
    
    <radialGradient id="highlight2" cx="72" cy="82" r="6" gradientUnits="userSpaceOnUse">
      <stop offset="0%" stop-color="#E6E8EE"/>
      <stop offset="100%" stop-color="#E6E8EE" stop-opacity="0"/>
    </radialGradient>
    
    <radialGradient id="glow" cx="64" cy="74" r="45" gradientUnits="userSpaceOnUse">
      <stop offset="0%" stop-color="#5B8CFF"/>
      <stop offset="100%" stop-color="#5B8CFF" stop-opacity="0"/>
    </radialGradient>
    
    <linearGradient id="reflection" x1="44" y1="64" x2="77" y2="64" gradientUnits="userSpaceOnUse">
      <stop offset="0%" stop-color="#E6E8EE" stop-opacity="0"/>
      <stop offset="50%" stop-color="#E6E8EE"/>
      <stop offset="100%" stop-color="#E6E8EE" stop-opacity="0"/>
    </linearGradient>
  </defs>
</svg>