<?xml version="1.0" encoding="UTF-8" standalone="no"?>
<svg width="200" height="60" viewBox="0 0 200 60" fill="none" xmlns="http://www.w3.org/2000/svg">
  <path d="M21.523 46.5C18.023 46.5 14.857 45.633 12.023 43.9C9.19 42.167 6.99 39.767 5.423 36.7C3.857 33.633 3.073 30.1 3.073 26.1C3.073 22.1 3.857 18.567 5.423 15.5C6.99 12.433 9.19 10.033 12.023 8.3C14.857 6.567 18.023 5.7 21.523 5.7C25.023 5.7 28.19 6.567 31.023 8.3C33.857 10.033 36.057 12.433 37.623 15.5C39.19 18.567 39.973 22.1 39.973 26.1C39.973 30.1 39.19 33.633 37.623 36.7C36.057 39.767 33.857 42.167 31.023 43.9C28.19 45.633 25.023 46.5 21.523 46.5ZM21.523 40.3C23.857 40.3 25.923 39.733 27.723 38.6C29.523 37.467 30.923 35.833 31.923 33.7C32.923 31.567 33.423 29.033 33.423 26.1C33.423 23.167 32.923 20.633 31.923 18.5C30.923 16.367 29.523 14.733 27.723 13.6C25.923 12.467 23.857 11.9 21.523 11.9C19.19 11.9 17.123 12.467 15.323 13.6C13.523 14.733 12.123 16.367 11.123 18.5C10.123 20.633 9.623 23.167 9.623 26.1C9.623 29.033 10.123 31.567 11.123 33.7C12.123 35.833 13.523 37.467 15.323 38.6C17.123 39.733 19.19 40.3 21.523 40.3Z" fill="white"/>
  <path d="M77.2435 6.2V46H71.3435V29H54.4435V46H48.5435V6.2H54.4435V23.3H71.3435V6.2H77.2435Z" fill="white"/>
  <path d="M83.2482 46V6.2H89.1482V46H83.2482Z" fill="white"/>
  <path d="M108.274 46.5C104.774 46.5 101.607 45.633 98.7736 43.9C95.9403 42.167 93.7403 39.767 92.1736 36.7C90.6069 33.633 89.8236 30.1 89.8236 26.1C89.8236 22.1 90.6069 18.567 92.1736 15.5C93.7403 12.433 95.9403 10.033 98.7736 8.3C101.607 6.567 104.774 5.7 108.274 5.7C111.774 5.7 114.94 6.567 117.774 8.3C120.607 10.033 122.807 12.433 124.374 15.5C125.94 18.567 126.724 22.1 126.724 26.1C126.724 30.1 125.94 33.633 124.374 36.7C122.807 39.767 120.607 42.167 117.774 43.9C114.94 45.633 111.774 46.5 108.274 46.5ZM108.274 40.3C110.607 40.3 112.674 39.733 114.474 38.6C116.274 37.467 117.674 35.833 118.674 33.7C119.674 31.567 120.174 29.033 120.174 26.1C120.174 23.167 119.674 20.633 118.674 18.5C117.674 16.367 116.274 14.733 114.474 13.6C112.674 12.467 110.607 11.9 108.274 11.9C105.94 11.9 103.874 12.467 102.074 13.6C100.274 14.733 98.8736 16.367 97.8736 18.5C96.8736 20.633 96.3736 23.167 96.3736 26.1C96.3736 29.033 96.8736 31.567 97.8736 33.7C98.8736 35.833 100.274 37.467 102.074 38.6C103.874 39.733 105.94 40.3 108.274 40.3Z" fill="white"/>
  <path d="M164.909 6.2V46H159.009V16.4L146.909 46H142.709L130.509 16.4V46H124.609V6.2H131.209L144.809 38.8L158.309 6.2H164.909Z" fill="white"/>
  <path d="M196.676 46H178.076V6.2H196.676V11.9H183.976V23.2H195.276V28.8H183.976V40.3H196.676V46Z" fill="white"/>
  <path d="M196.676 46H178.076V6.2H196.676V11.9H183.976V23.2H195.276V28.8H183.976V40.3H196.676V46Z" fill="white"/>
</svg>
